# xmcd
#
# Track frame offsets: 
#        183
#        11613
#        26105
#        41383
#        54593
#        70528
#        86780
#        103293
#        121628
#        136770
#        152355
#        167058
#        176435
#        192083
#
# Disc length: 2778 seconds
#
# Revision: 0
# Processed by: cddbd v1.5.2PL0 Copyright (c) Steve Scherf et al.
# Submitted via: ExactAudioCopyFreeDBPlugin 1.0
#
DISCID=a80ad80e
DTITLE=Francis Goya - More Golden Strings of Francis Goya
DYEAR=1991
DGENRE=
TTITLE0=Twilight Time
TTITLE1=Concerto D Aranjuez
TTITLE2=Theme from The Deer Hunter
TTITLE3=The French Song
TTITLE4=Volare
TTITLE5=El Solitaire
TTITLE6=Loneliness
TTITLE7=Your Song
TTITLE8=Ave Maria No Morro
TTITLE9=Guantanamera
TTITLE10=Lara's Theme
TTITLE11=Kontiki
TTITLE12=My Happiness
TTITLE13=ET Maintenant
EXTD=
EXTT0=
EXTT1=
EXTT2=
EXTT3=
EXTT4=
EXTT5=
EXTT6=
EXTT7=
EXTT8=
EXTT9=
EXTT10=
EXTT11=
EXTT12=
EXTT13=
PLAYORDER=
